<?xml version="1.0" encoding="UTF-8"?>
<svg id="Layer_1" data-name="Layer 1" xmlns="http://www.w3.org/2000/svg" viewBox="200 245 660 530" width="660" height="530">
  <defs>
    <style>
      .cls-1 {
        stroke: currentColor;
        stroke-miterlimit: 10;
        stroke-width: 2px;
      }

      .cls-2 {
        fill: #fff;
      }

      .cls-3 {
        fill: #e0e0e0;
      }
    </style>
  </defs>
  <g>
    <path class="cls-3" d="M465.36,740.83c-64.38,0-124.91-24.48-170.42-68.94-45.5-44.44-70.55-103.51-70.55-166.34s25.06-121.9,70.55-166.34c45.52-44.46,106.04-68.94,170.42-68.94,78.32,0,151.44,37.35,196.38,98.91-34.36-26.21-77.94-40.88-123.01-40.88-106.2,0-192.6,79.51-192.6,177.24s86.4,177.24,192.6,177.24c45.07,0,88.65-14.67,123.01-40.88-44.93,61.57-118.06,98.91-196.38,98.91Z"/>
    <path d="M465.36,273.78c42.92,0,84.98,11.3,121.62,32.67,21.62,12.61,41.02,28.49,57.47,46.92-31.3-18.44-68.01-28.56-105.73-28.56-108.13,0-196.1,81.08-196.1,180.74s87.97,180.74,196.1,180.74c37.72,0,74.42-10.11,105.73-28.56-16.45,18.43-35.85,34.31-57.47,46.92-36.64,21.37-78.7,32.67-121.62,32.67-32.08,0-63.2-6.13-92.49-18.23-28.28-11.68-53.68-28.41-75.49-49.71-21.8-21.29-38.91-46.08-50.86-73.67-12.37-28.55-18.64-58.89-18.64-90.16s6.27-61.61,18.64-90.16c11.95-27.6,29.06-52.38,50.86-73.67,21.81-21.3,47.21-38.03,75.49-49.71,29.29-12.1,60.41-18.23,92.49-18.23M465.36,266.78c-135.02,0-244.48,106.9-244.48,238.78s109.46,238.78,244.48,238.78c91.48,0,171.21-49.08,213.13-121.75-34.58,34.84-84.39,56.71-139.76,56.71-104.44,0-189.1-77.79-189.1-173.74s84.66-173.74,189.1-173.74c55.37,0,105.18,21.87,139.76,56.71-41.92-72.66-121.65-121.75-213.13-121.75h0Z"/>
  </g>
  <g>
    <path class="cls-1" d="M418.88,481.29h19.13v37.6h46.11v10.32h-65.14l-.1-47.92Z"/>
    <path class="cls-1" d="M528.59,529.89c-23.91,0-38.45-9.64-38.36-24.61,0-7.86.1-16.13.1-23.99h18.75l.1,23.52c0,10.73,7.94,14.42,19.42,14.42,10.43,0,18.65-4.78,18.65-14.7v-23.24h18.84v23.38c0,15.52-14.25,25.22-37.5,25.22Z"/>
    <path class="cls-1" d="M653.8,503.91l-26.21,24.54h-6.41l-22.77-24.2-4.02,24.95h-17.41l5.93-47.92,14.16-.07,28.7,30.62,32.33-30.62,11.38.07,6.03,47.92h-17.41l-4.3-25.29Z"/>
    <path class="cls-1" d="M689.85,481.29h62.75v9.84h-43.62c0,3.14-.1,6.29-.1,9.5h37.31v9.57h-37.21v9.09h44.86v9.91h-64.09l.1-47.92Z"/>
    <path class="cls-1" d="M786.75,501.66c0,9.09-.1,18.52-.1,27.55h-18.56v-47.92h11.48l45.05,26.32c0-8.82.1-17.57.1-26.32h18.27v47.92h-9.18l-47.06-27.55Z"/>
  </g>
  <g>
    <path d="M764.25,577.34l.97-14.29.66-11.42c.78-5.64,0,0,2.33-16.68l-33.77,36.18c-2.71,3.12-8.13,9.63-11.54,12.77h0c-8.36,1.44-8.24,1.48-8.36,1.44l-14.88,2.58-1.9.32-49.15,7.9c2.06,3.12,4.75,4.22,7.58,6.03l17.75,11.36c5.94,3.8,11.86,6.64,17.59,11.96l-54.83,77.86c6-2.47,6.79-3.08,6-2.47l70.8-49.1c2.14-1.49,5.83,1.69,7.4,2.94l12.94,10.33,17.22,13.98c5.78-53.34-.53,4.24,0,0l5.34-49.23c.5-4.02.47-6.42,4.39-9.12l78.88-54.34-75.4,11.02Z"/>
    <text/>
    <g>
      <path class="cls-2" d="M700.4,616.36l10.05-2.61-1.27,22.04-9.51,1.66.72-21.09ZM700.91,601.78l10.63-3.38-.76,10.69-10.26,2.85.39-10.16Z"/>
      <path class="cls-2" d="M718.76,596.11l21.48-6.83c4.97-1.35,11.85-.02,11.94,8.34l-38.94,10.8,5.52-12.3ZM716.52,612.18l11.79-3.06-1.63,14.05,2.43-.51c3.89-.82,6.46-1.59,7.98-4.7.84-2.17,1.91-6.86,1.6-11.59l13.24-3.44c-.68,16.46-3.77,26.11-17.3,28.47l-20.1,3.5,1.97-22.72Z"/>
    </g>
  </g>
</svg>